<svg id="Layer_1" data-name="Layer 1" xmlns="http://www.w3.org/2000/svg" viewBox="0 0 432 432"><defs><style>.cls-1{fill:#d1e8eb;}.cls-2,.cls-3{fill:#fff;}.cls-2,.cls-3,.cls-4{stroke:#111827;stroke-miterlimit:10;}.cls-2,.cls-4{stroke-width:5px;}.cls-3{stroke-linecap:round;stroke-width:6px;}.cls-4{fill:none;}</style></defs><circle class="cls-1" cx="216" cy="216" r="212"/><rect class="cls-2" x="112.07" y="85.91" width="178.88" height="263.9" rx="4.94" transform="translate(-48.99 58.74) rotate(-14.81)"/><path class="cls-2" d="M349.47,131.35V327.9a.37.37,0,0,1-.38.37H171a.37.37,0,0,1-.38-.37V65.31a.38.38,0,0,1,.38-.38H287.24Z"/><line class="cls-3" x1="189.36" y1="115.72" x2="267.02" y2="115.72"/><line class="cls-3" x1="189.36" y1="151.06" x2="324.44" y2="151.06"/><line class="cls-3" x1="189.36" y1="186.39" x2="324.44" y2="186.39"/><line class="cls-3" x1="189.36" y1="221.72" x2="324.44" y2="221.72"/><line class="cls-3" x1="189.36" y1="257.06" x2="324.44" y2="257.06"/><line class="cls-3" x1="189.36" y1="292.39" x2="324.44" y2="292.39"/><path class="cls-4" d="M287.24,64.93v65.43a.6.6,0,0,0,.6.6h61.63"/></svg>